<svg width="291" height="330" viewBox="0 0 291 330" fill="none" xmlns="http://www.w3.org/2000/svg">
<g clip-path="url(#clip0_70_2062)">
<path d="M200.353 230.401C208.548 231.463 220.987 235.758 229.054 233.942C243.147 207.937 249.871 172.765 251.017 143.213C243.27 139.953 231.588 138.254 223.208 137.518C217.86 168.555 210.496 200.584 200.353 230.401Z" fill="#12071D"/>
<path d="M37.565 314.822C43.3371 318.326 49.9216 320.095 56.6721 320.842C60.1986 321.239 63.7754 321.344 67.3212 321.272C77.6076 321.075 86.8851 319.514 97.1767 319.58C97.5414 317.488 97.9043 315.386 98.2706 313.304C101.181 296.821 104.301 280.2 108.01 263.933C109.363 263.899 110.227 263.91 111.579 263.876C111.804 262.437 111.327 260.979 111.54 259.532C125.209 259.373 138.88 258.585 152.487 257.2C143.941 245.357 131.678 234.296 119.366 226.023C118.458 225.411 117.544 224.821 116.641 224.238C110.134 223.49 102.976 223.2 95.9731 223.329C91.14 223.403 86.3726 223.679 81.971 224.135C76.2534 229.536 70.4641 237.952 69.9723 242.278C70.3383 247.741 70.6678 253.17 70.9858 258.592C71.5554 268.066 72.077 277.498 72.7061 287.023C72.2207 287.321 71.7325 287.66 71.2609 288.037C69.2416 289.536 67.3621 291.487 65.8967 293.488C65.721 293.701 65.5569 293.923 65.4108 294.131C64.1881 294.619 62.9406 295.08 61.6879 295.512C59.2446 296.325 56.728 297.008 54.1852 297.483C50.8918 298.13 47.5549 298.471 44.225 298.444C41.1932 300.648 38.9888 304.106 37.9884 307.841C37.3561 310.143 37.1877 312.545 37.5765 314.83L37.565 314.822Z" fill="#CE9CFF"/>
<path d="M70.9678 258.605C74.8094 258.136 78.4914 257.624 82.4515 257.195C83.7499 252.09 85.6056 246.867 87.5146 241.948C91.1098 239.778 94.2461 237.303 97.8431 235.142C97.8713 235.188 97.9094 235.232 97.9394 235.288C98.1409 231.216 97.4636 227.105 95.9418 223.324C91.1087 223.399 86.3413 223.675 81.9397 224.13C76.2221 229.532 70.4327 237.948 69.941 242.273C70.307 247.737 70.6365 253.166 70.9545 258.587L70.9678 258.605Z" fill="url(#paint0_linear_70_2062)"/>
<path d="M65.877 293.492C68.597 297.225 71.7642 299.977 76.0517 301.946C77.9955 299.608 79.417 297.24 81.3608 294.902C77.8476 292.838 74.4557 290.541 71.2412 288.04C69.2219 289.539 67.3424 291.491 65.877 293.492Z" fill="url(#paint1_linear_70_2062)"/>
<path d="M54.1654 297.487C55.449 301.238 56.6607 305.043 57.5149 308.889C60.2175 308.69 62.8633 308.167 65.5041 307.614C65.1065 303.363 63.7953 299.221 61.678 295.514C59.2347 296.327 56.7181 297.01 54.1753 297.485L54.1654 297.487Z" fill="url(#paint2_linear_70_2062)"/>
<path d="M37.5666 314.822C43.3387 318.326 49.9231 320.095 56.6737 320.842C60.2002 321.239 63.777 321.344 67.3228 321.272C77.6092 321.075 86.8867 319.514 97.1783 319.58C97.543 317.488 97.9059 315.386 98.2722 313.304C91.6732 311.567 85.2183 311.469 78.4273 312.058C74.542 312.393 70.6593 312.859 66.8042 313.482C64.8315 313.797 62.8755 314.149 60.9263 314.54C60.369 314.658 59.8742 314.785 59.3956 314.889C58.4482 315.095 57.5807 315.237 56.4547 315.059C49.8712 314.05 43.5095 311.582 37.99 307.841C37.3577 310.143 37.1893 312.545 37.5781 314.83L37.5666 314.822Z" fill="#800BF5"/>
<g style="mix-blend-mode:multiply" opacity="0.2">
<path d="M56.6626 320.844C60.1891 321.241 63.7659 321.346 67.3117 321.274C77.5981 321.077 86.8755 319.516 97.1672 319.582C97.5318 317.49 97.8948 315.388 98.2611 313.306C101.172 296.823 104.292 280.202 108.001 263.934C109.353 263.901 110.217 263.912 111.57 263.878C111.795 262.439 111.317 260.981 111.531 259.534C125.2 259.375 138.87 258.587 152.477 257.201C143.931 245.359 131.669 234.298 119.356 226.025C111.52 226.726 103.764 228.407 96.3372 231.045C89.6034 250.6 85.2762 271.164 83.3561 291.753C83.1032 294.485 81.4845 296.827 79.2342 298.397C76.9955 299.975 74.439 301.011 72.0358 302.344C66.7882 305.27 62.3862 309.67 59.3729 314.883C58.2744 316.779 57.3656 318.773 56.6724 320.842L56.6626 320.844Z" fill="#800BF5"/>
</g>
<path d="M79.2951 167.29C85.1559 174.378 91.6065 180.898 98.6406 186.635C103.221 190.398 108.057 193.822 113.127 196.85C113.919 197.321 117.652 195.704 118.559 195.444C123.138 194.146 127.658 192.626 132.147 190.989C133.756 190.393 135.354 189.789 136.948 189.165C142.51 186.996 148.426 185.049 153.124 181.124C157.75 177.252 161.224 171.37 160.998 165.081C160.851 161.222 159.035 157.382 156.212 154.914C154.957 153.825 153.882 153.242 152.848 153.007C150.923 152.553 149.123 153.273 146.599 154.09C142.105 155.525 137.71 157.298 133.476 159.407C132.218 160.043 122.098 166.823 121.626 166.5C111.385 159.406 101.016 153.674 89.9674 148.111C84.8305 153.238 80.8802 159.994 79.2887 167.311L79.2951 167.29Z" fill="#CE9CFF"/>
<path d="M98.6399 186.635C103.22 190.398 108.056 193.822 113.127 196.851C113.918 197.321 117.651 195.704 118.559 195.444C123.137 194.147 127.657 192.626 132.146 190.989C130.705 188.482 129.02 186.089 127.116 183.897C123.476 184.878 120.123 185.475 116.357 185.799C111.689 186.179 107.494 184.103 103.625 181.453C101.781 183.023 100.126 184.753 98.6301 186.637L98.6399 186.635Z" fill="url(#paint3_linear_70_2062)"/>
<g style="mix-blend-mode:multiply" opacity="0.2">
<path d="M150.444 162.647C141.04 164.585 131.9 167.806 123.349 172.192C122.941 174.383 121.756 176.538 120.318 178.23C119.381 176.872 119.11 175.439 119.158 173.797C118.019 174.818 117.104 175.617 115.974 176.636C115.475 174.705 115.436 172.978 115.751 171.006C108.373 165.622 100.88 161.436 92.4998 157.8C91.0555 161.663 88.8242 165.664 85.4554 168.028C92.2425 177.054 101.084 185.244 110.479 191.502C123.439 190.767 135.947 187.211 147.596 181.461C150.275 180.141 153.055 178.529 154.315 175.814C155.371 173.56 155.155 170.87 154.271 168.539C153.388 166.209 151.975 164.62 150.444 162.647Z" fill="#800BF5"/>
</g>
<path d="M137.244 199.794C137.443 199.424 145.687 201.238 146.399 201.367C150.117 202.106 153.849 202.752 157.502 203.756C163.541 205.418 169.488 207.431 175.301 209.772C183.592 213.129 191.608 217.174 199.195 221.902C202.347 223.866 205.417 225.945 208.405 228.141C211.489 227.277 214.03 224.703 214.871 221.625C215.483 219.378 215.454 217.01 216.12 214.784C216.749 212.696 217.862 210.767 218.761 208.774C220.74 204.371 222.468 199.87 223.948 195.281C225.429 190.701 226.652 186.035 227.622 181.311C228.121 178.942 228.547 176.565 228.921 174.177C229.093 173.072 229.05 168.009 229.812 167.378C238.876 159.891 247.295 151.552 255.176 142.75C257.899 139.708 260.563 136.615 263.167 133.472C263.421 126.45 262.742 119.307 259.321 113.536C256.009 110.068 252.481 106.821 248.756 103.832C232.288 90.5753 212.063 81.9822 191.088 79.1998C192.173 88.1479 195.168 99.8963 201.616 106.517C204.813 109.792 208.468 112.723 212.284 115.24C214.13 116.469 216.058 117.582 218.05 118.593C218.195 118.669 218.442 118.808 218.767 118.985C220.251 119.821 223.252 121.507 223.87 121.155C221.232 122.651 218.637 124.221 216.095 125.862C216.049 125.89 216.013 125.917 215.967 125.945C213.267 127.665 210.618 129.446 208.005 131.323C204.968 133.497 201.988 135.763 199.085 138.127C189.684 138.746 180.178 138.593 170.893 140.399C170.548 140.46 170.217 140.538 169.853 140.601C164.015 141.825 157.735 143.775 153.668 148.006C152.209 149.519 151.024 151.328 150.248 153.503C149.207 156.423 148.776 159.531 148.255 162.584C146.154 174.939 143.206 188.71 137.234 199.795L137.244 199.794Z" fill="#CE9CFF"/>
<g style="mix-blend-mode:multiply" opacity="0.3">
<path d="M165.719 151.831C167.625 155.606 173.958 155.817 177.561 155.43C186.56 154.485 195.853 149.584 203.162 144.472C205.674 142.715 208.59 140.602 211.017 138.129C214.125 134.969 216.456 131.194 216.261 126.766C216.244 126.434 216.182 126.14 216.103 125.86C216.057 125.888 216.021 125.915 215.976 125.943C213.275 127.663 210.626 129.445 208.013 131.321C204.976 133.496 201.996 135.761 199.094 138.125C189.692 138.745 180.186 138.591 170.901 140.398C170.557 140.458 170.225 140.536 169.861 140.6C168.809 141.829 167.85 143.132 167.004 144.497C165.633 146.694 164.552 149.5 165.719 151.831Z" fill="#800BF5"/>
</g>
<g style="mix-blend-mode:multiply" opacity="0.2">
<path d="M199.197 221.911C202.348 223.876 205.418 225.955 208.407 228.151C211.49 227.287 214.032 224.713 214.873 221.635C215.484 219.388 215.456 217.019 216.122 214.793C216.751 212.706 217.864 210.777 218.763 208.784C220.741 204.381 222.47 199.88 223.949 195.29C225.431 190.711 226.654 186.045 227.624 181.321C228.122 178.952 228.549 176.575 228.923 174.187C229.095 173.082 229.052 168.018 229.814 167.388C238.878 159.901 247.296 151.562 255.178 142.76C257.901 139.718 260.565 136.625 263.169 133.482C263.423 126.46 262.743 119.317 259.323 113.546C256.01 110.078 252.483 106.831 248.757 103.842C232.288 90.5753 212.063 81.9822 191.088 79.1998C192.173 88.1479 195.168 99.8963 201.616 106.517C204.813 109.792 208.468 112.723 212.284 115.24C214.13 116.469 216.058 117.582 218.05 118.593C218.195 118.669 218.442 118.808 218.767 118.985C225.074 116.959 232.175 117.563 238.045 120.644C235.557 120.907 233.31 122.151 231.093 123.33C233.232 125.127 235.489 128.302 236.719 130.815C235.791 130.724 235.077 131.052 234.159 130.959C228.453 138.458 222.381 145.665 216.012 152.621C214.707 151.703 214.116 150.934 212.81 150.017C212.891 153.38 212.802 156.996 213.373 160.324C214.012 163.985 215.301 167.36 215.372 171.131C215.488 177.49 213.168 183.94 211.101 189.87C209.042 195.788 205.978 201.405 204.865 207.573C204.292 210.736 204.221 214.045 202.907 216.972C202.053 218.876 200.721 220.479 199.199 221.921L199.197 221.911Z" fill="#800BF5"/>
</g>
<path d="M127.772 126.682C129.339 131.246 131.608 135.585 134.439 139.492C139.966 147.106 147.637 152.661 157.154 153.634C159.456 153.87 161.778 153.87 164.072 153.712C169.702 153.326 175.275 151.915 180.651 150.245C181.576 149.971 182.498 149.678 183.411 149.387C192.056 146.587 199.641 140.615 204.37 132.861C212.309 119.86 211.352 103.405 203.617 90.7511C202.041 88.1667 200.178 85.7439 198.048 83.5302C197.539 83.0004 197.005 82.4955 196.473 82.0003C194.776 80.4107 192.946 78.9863 191.036 77.7481C186.747 74.9585 182.01 73.0282 177.082 71.9733C167.834 69.99 157.922 71.054 149.038 75.2142C148.251 75.585 147.485 75.9623 146.727 76.3789C138.602 80.7713 130.707 87.9837 127.701 96.8969C127.697 96.9281 127.684 96.9709 127.669 97.0039C127.519 97.4765 127.37 97.9589 127.239 98.4281C127.15 98.6768 127.082 98.9221 127.015 99.1772C124.526 108.152 124.755 117.879 127.776 126.702L127.772 126.682Z" fill="#CE9CFF"/>
<g style="mix-blend-mode:multiply" opacity="0.2">
<path d="M180.444 148.831C180.503 149.287 180.566 149.763 180.658 150.233C181.584 149.96 182.506 149.667 183.418 149.375C192.064 146.575 199.648 140.604 204.377 132.85C212.316 119.849 211.359 103.393 203.625 90.7396C201.484 87.6554 199.138 84.7289 196.48 81.9889C196.329 81.8225 196.182 81.6758 196.022 81.5112C194.557 80.033 192.904 78.5777 191.044 77.7366C190.263 77.3864 189.432 77.1564 188.554 77.0665C183.96 76.6527 180.068 80.9541 179.123 85.4704C178.165 89.9686 179.322 94.6243 180.172 99.1411C181.863 108.186 182.336 117.455 181.574 126.624C180.951 134.026 179.533 141.464 180.444 148.831Z" fill="#800BF5"/>
</g>
<path d="M127.772 126.682C129.339 131.246 131.608 135.585 134.439 139.492C139.966 147.106 147.637 152.661 157.154 153.634C159.456 153.87 161.778 153.87 164.072 153.712C168.177 153.298 172.227 152.286 176.006 150.641C184.754 146.86 192.059 139.751 195.824 131.009C199.598 122.256 199.715 111.951 195.91 103.225C179.556 91.3685 158.257 87.8922 138.896 93.6612C134.685 94.915 130.562 96.6197 127.003 99.1691C124.515 108.144 124.743 117.871 127.764 126.694L127.772 126.682Z" fill="#38217B"/>
<path d="M189.076 100.779C169.783 88.8785 152.22 92.2237 144.883 93.9227C136.806 95.8016 130.246 98.8757 125.79 104.939L125.505 107.372L123.117 106.411C123.117 106.411 132.511 88.6215 165.757 90.9619C173.422 91.4877 182.223 95.324 188.903 99.4399L189.067 100.79L189.076 100.779Z" fill="#14063D"/>
<path d="M165.766 90.9503C132.522 88.6198 123.126 106.399 123.126 106.399L125.409 97.1762C125.409 97.1762 139.309 83.4775 162.997 86.5867C177.616 88.5028 189.244 96.1045 189.244 96.1045L188.91 99.4185C182.23 95.3026 173.43 91.4662 165.765 90.9405L165.766 90.9503Z" fill="#800BF5"/>
<path d="M196.72 114.483C196.778 126.136 191.3 137.033 182.248 144.357C173.186 151.682 160.685 154.172 149.308 151.669C149.079 152.094 149.078 152.673 148.848 153.098C156.038 153.92 163.934 154.608 170.873 152.543C178.428 150.289 184.875 145.003 189.356 138.499C198.713 126.305 197.749 115.094 197.749 115.094L196.71 114.485L196.72 114.483Z" fill="#14063D"/>
<path d="M170.884 152.541C178.438 150.287 184.886 145.001 189.367 138.497C198.724 126.303 197.76 115.092 197.76 115.092L197.194 114.755L199.676 115.497C201.324 126.619 196.443 138.264 187.931 145.604C179.419 152.945 167.668 156.075 156.496 154.915C153.946 154.651 151.301 153.846 148.859 153.096C156.049 153.918 163.945 154.606 170.884 152.541Z" fill="#800BF5"/>
<path d="M192.471 110.236C192.526 110.318 192.569 110.391 192.624 110.473C194.69 113.479 200.483 118.612 204.039 114.126C204.213 113.903 204.375 113.672 204.505 113.426C205.272 112.075 205.49 110.475 205.527 108.947C205.607 104.409 204.26 99.6551 201.487 95.9715C199.77 93.6855 196.54 90.4572 193.207 91.5167C192.909 91.6094 192.606 91.7334 192.302 91.9082C186.23 95.3333 189.696 106.015 192.471 110.236Z" fill="#14063D"/>
<path d="M192.471 110.236C192.525 110.318 192.569 110.391 192.623 110.473C194.689 113.479 200.482 118.612 204.038 114.126C204.212 113.903 204.374 113.672 204.504 113.426C202.756 114.624 200.346 114.579 198.428 113.697C196.489 112.809 194.979 111.187 193.835 109.399C191.168 105.271 190.208 100.064 191.231 95.2395C191.535 93.8475 192.095 92.35 193.216 91.515C192.918 91.6077 192.616 91.7316 192.312 91.9065C186.239 95.3316 189.706 106.013 192.48 110.234L192.471 110.236Z" fill="#800BF5"/>
<path d="M197.319 105.656C197.95 106.773 199.873 108.262 200.976 106.974C202.069 105.687 201.52 103.177 201.07 101.765C200.639 100.4 199.748 99.1257 198.577 98.2858C198.182 97.9998 197.677 97.8347 197.21 97.9468C195.847 98.2663 195.71 100.795 196.063 101.829C195.978 101.225 196.062 100.602 196.223 100.016C196.384 99.4299 196.846 98.8826 197.453 98.817C198.18 98.7406 198.786 99.3649 199.196 99.9727C200.06 101.262 200.633 102.744 200.852 104.288C200.96 105.08 200.931 106.018 200.296 106.505C199.859 106.845 199.235 106.873 198.731 106.657C198.219 106.452 197.612 106.112 197.318 105.646L197.319 105.656Z" fill="url(#paint4_linear_70_2062)"/>
<path style="mix-blend-mode:screen" d="M126.92 106.476C125.912 115.506 128.966 131.372 138.277 141.326C142.93 145.036 149.701 145.555 155.159 143.191C160.616 140.827 164.738 135.867 166.74 130.263C168.742 124.66 168.756 118.47 167.498 112.656C166.239 106.841 163.75 101.354 160.856 96.1599C148.561 94.6081 135.349 97.5575 126.919 106.466L126.92 106.476Z" fill="url(#paint5_linear_70_2062)"/>
<path style="mix-blend-mode:screen" d="M143.934 128.146C143.605 129.512 143.146 130.951 142.04 131.814C140.959 132.652 139.448 132.764 138.133 132.375C136.828 131.985 135.691 131.159 134.671 130.253C131.672 127.592 129.403 124.125 128.169 120.304C127.179 117.252 126.861 113.92 127.689 110.824C128.517 107.728 130.597 104.89 133.515 103.548C146.714 97.4462 145.572 121.328 143.936 128.156L143.934 128.146Z" fill="url(#paint6_linear_70_2062)"/>
<path style="mix-blend-mode:screen" d="M143.346 143.878C138.259 137.272 150.354 135.066 153.851 139.941C155.593 142.365 157.951 147.277 153.425 147.835C150.051 148.253 145.42 146.578 143.348 143.888L143.346 143.878Z" fill="url(#paint7_linear_70_2062)"/>
<path d="M246.202 134.674C248.318 138.087 251.538 140.85 255.155 142.753C257.878 139.711 260.542 136.619 263.146 133.476C263.4 126.453 262.721 119.31 259.3 113.539C255.988 110.072 252.46 106.825 248.735 103.835C246.012 105.194 243.679 107.336 242.108 109.953C241.638 110.746 244.838 115.541 245.41 116.263C246.778 118.001 247.705 119.249 248.253 121.516C249.301 125.947 248.598 130.807 246.203 134.684L246.202 134.674Z" fill="url(#paint8_linear_70_2062)"/>
<path d="M182.266 165.419C185.156 160.836 192.868 157.855 194.813 164.817C195.252 166.403 195.506 168.205 195.564 170.102C197.746 169.304 199.928 168.507 202.111 167.709C202.453 167.578 202.823 167.433 202.958 167.105C203.073 166.831 202.988 166.521 202.907 166.231C201.483 161.034 200.294 156.14 198.851 150.956C202.136 144.631 204.432 137.516 208.003 131.313C210.607 129.448 213.254 127.657 215.965 125.935C210.472 133.671 205.86 142.033 202.248 150.788C203.173 156.55 204.698 162.551 206.452 168.127C202.885 170.109 199.386 171.959 195.484 173.128C195.162 177.616 193.839 182.29 191.499 185.782C190.704 186.976 189.781 188.02 188.745 188.88C185.51 191.546 181.947 190.302 180.201 186.805C176.852 180.108 178.271 171.746 182.266 165.419Z" fill="url(#paint9_linear_70_2062)"/>
<path d="M186.14 178.322C186.092 178.391 186.031 178.452 185.983 178.522C185.69 178.877 185.269 179.194 184.788 179.227C184.327 179.257 183.9 179.018 183.6 178.695C180.866 175.694 181.705 170.162 184.059 167.154C185.037 165.908 186.895 164.761 188.077 166.36C189.084 167.715 188.958 170.131 188.785 171.693C188.532 174.019 187.641 176.406 186.132 178.333L186.14 178.322Z" fill="#14063D"/>
<path d="M62.2979 231.825C65.1379 234.097 68.1651 236.164 71.4077 237.838C72.0696 236.81 72.7401 235.83 73.4139 234.871C76.0493 231.093 78.7521 227.761 81.942 224.14C84.6663 223.775 87.3667 223.506 90.0629 223.328C98.1283 222.78 106.12 223.026 114.268 223.883C120.933 233.427 128.704 241.642 136.691 250.053C144.842 258.648 153.39 262.315 165.195 262.858C176.194 263.378 187.968 260.782 195.324 251.991C200.014 246.393 203.765 240.007 206.418 233.194C207.135 231.324 207.784 229.406 208.328 227.475C208.685 226.266 209.011 225.053 209.284 223.829C193.188 212.82 175.158 205.476 155.985 202.277C154.942 202.104 153.888 201.934 152.839 201.792C149.26 198.422 145.601 195.523 141.373 193.027C138.007 191.049 134.708 190.622 130.852 190.019C127.506 190.715 124.21 191.636 120.948 192.755C111.077 196.144 101.639 201.253 92.5953 206.536C92.4131 206.538 92.2274 206.52 92.0452 206.521C89.2337 206.445 86.7189 206.093 83.9318 205.982C83.6461 205.971 83.362 205.97 83.0664 205.961C81.8312 205.041 80.5698 204.146 79.2974 203.304C77.2704 201.914 75.1801 200.626 73.0348 199.429C70.0202 197.725 66.8971 196.213 63.6788 194.909C60.8079 193.738 56.8953 194.787 54.2582 196.232C50.884 198.1 49.6364 201.29 49.2184 204.761C49.0781 205.931 49.0251 207.137 49.0115 208.336C48.9628 218.335 54.7777 225.858 62.2863 231.817L62.2979 231.825Z" fill="#CE9CFF"/>
<g style="mix-blend-mode:multiply" opacity="0.2">
<path d="M90.0725 223.327C98.138 222.778 106.129 223.024 114.278 223.881C120.942 233.425 128.713 241.641 136.701 250.051C144.852 258.646 153.4 262.314 165.204 262.856C176.204 263.377 187.977 260.78 195.333 251.989C200.023 246.392 203.774 240.005 206.427 233.193C207.145 231.323 207.793 229.404 208.338 227.473C204.934 225.34 201.056 223.797 198.187 221.013C196.057 223.91 192.427 225.417 188.849 225.769C185.271 226.121 180.998 225.57 177.466 224.91C172.02 217.059 164.641 210.682 156.396 205.846C151.866 209.518 146.951 212.721 141.92 215.669C124.673 210.257 105.02 213.187 90.0593 223.309L90.0725 223.327Z" fill="#800BF5"/>
</g>
<path d="M152.85 201.8C155.479 205.012 156.086 205.352 158.608 208.765C168.522 210.094 177.937 214.077 186.542 219.175C193.531 223.318 200.039 228.194 206.429 233.202C207.6 230.158 208.574 227.026 209.295 223.837C192.323 212.221 173.196 204.693 152.85 201.8Z" fill="#800BF5"/>
<path d="M74.9025 219.884C76.9731 221.175 79.2056 221.535 81.6244 221.163C83.4044 215.912 86.7648 211.004 92.066 206.527C89.2546 206.451 86.7398 206.1 83.9527 205.989C78.4283 209.419 75.5518 214.486 74.9025 219.884Z" fill="url(#paint10_linear_70_2062)"/>
<path d="M60.5015 213.234C62.5726 215.225 64.7393 216.428 67.4393 217.376C70.735 212.154 74.1917 206.753 79.2991 203.314C77.272 201.924 75.1818 200.636 73.0364 199.439C67.977 202.92 63.3594 207.886 60.4934 213.245L60.5015 213.234Z" fill="url(#paint11_linear_70_2062)"/>
<path d="M62.2982 231.825C65.1382 234.097 68.1655 236.164 71.408 237.838C72.0699 236.81 72.7404 235.83 73.4143 234.871C71.3247 233.877 69.3256 232.705 67.4356 231.403C63.4573 228.65 59.9175 225.273 57.0125 221.41C53.3128 216.479 50.6627 210.766 49.2385 204.757C49.0982 205.928 49.0451 207.134 49.0315 208.333C48.9828 218.331 54.7977 225.854 62.3063 231.813L62.2982 231.825Z" fill="#800BF5"/>
<path d="M114.955 201.166C116.258 197.946 118.413 195.135 120.969 192.761C124.221 191.645 127.527 190.722 130.873 190.025C134.73 190.628 138.018 191.057 141.394 193.033C145.622 195.529 149.281 198.429 152.86 201.799C154.536 203.849 155.389 204.724 156.449 205.979C153.74 213.166 148.701 220.245 141.637 223.397C137.02 219.944 131.32 216.915 125.909 214.899C122.407 213.595 118.956 214.209 115.245 213.803C113.041 209.827 113.264 205.356 114.953 201.156L114.955 201.166Z" fill="url(#paint12_linear_70_2062)"/>
<path d="M64.7916 158.426C67.421 164.021 79.122 170.069 84.418 164.923C86.5331 162.87 87.4691 159.927 88.3371 157.118C89.4309 153.57 90.5306 149.939 90.4902 146.224C90.3903 138.453 85.0413 131.508 84.6805 123.751C85.32 122.595 85.604 121.318 86.2568 120.179C85.7012 119.668 84.7818 119.048 84.2326 118.515C84.1311 116.017 84.3003 113.503 84.7292 111.024C84.5773 110.909 84.4236 110.784 84.2734 110.678C82.9526 109.733 81.336 109.184 79.8199 109.733C77.9876 112.477 76.9503 115.478 75.9914 118.638C75.2182 121.177 76.9795 124.297 77.4169 126.918C77.035 126.995 76.6761 127.088 76.3075 127.183C72.0103 128.178 68.1269 129.394 64.0163 131.168C61.1118 132.416 62.2829 136.917 62.4979 140.064C62.7789 144.113 63.1075 148.143 63.4655 152.167C63.666 154.303 63.8768 156.497 64.7916 158.426Z" fill="#800BF5"/>
<path d="M53.4296 144.865C53.7441 146.666 54.6843 148.277 55.9571 149.585C56.6407 149.669 57.3295 149.782 58.0132 149.865C59.1218 152.44 60.1061 155.29 60.861 157.988C60.644 158.37 60.626 159.023 60.4107 159.415C60.6465 160.591 60.8183 161.575 61.0621 162.74C61.8881 163.173 62.794 163.542 63.7088 163.788C64.8768 164.091 66.091 164.193 67.2617 163.988C69.7408 163.555 71.5071 161.826 73.6225 160.645C76.0141 159.303 78.4206 157.99 80.8157 156.669C81.0715 154.94 80.7564 153.484 80.0499 151.934C81.0532 151.525 81.8871 150.67 82.3886 149.71C82.2011 147.765 81.8562 145.847 81.3145 143.964C81.1914 143.55 81.0747 143.114 80.7652 142.793C80.1727 142.186 79.2886 142.29 78.5365 142.28C78.4345 141.405 78.676 140.582 78.6544 139.703C78.6051 138.434 78.1921 137.056 77.9247 135.815C77.8444 135.413 77.7329 135.007 77.4336 134.744C77.1708 134.517 76.796 134.46 76.4426 134.411C75.0916 134.221 73.7904 133.911 72.4817 133.673C73.2444 132.526 73.6396 131.189 73.5303 129.808C73.3549 127.527 72.7076 126.2 70.2678 125.987C69.167 125.896 67.9765 125.871 67.14 125.145C65.9911 124.139 65.1077 123.492 63.6849 122.95C63.4869 123.035 63.297 123.109 63.1008 123.204C57.1329 125.779 52.9758 131.06 51.7798 137.506C51.5058 139.015 52.6623 140.354 53.5851 141.633C53.6382 141.705 53.6913 141.777 53.7461 141.858C54.0139 141.883 54.6112 142.052 54.8808 142.086C54.9673 142.233 55.0166 142.458 55.0232 142.67C55.0465 142.919 55.0073 143.159 54.9185 143.347C54.5754 143.995 53.9708 144.365 53.451 144.871L53.4296 144.865Z" fill="#14063D"/>
<path fill-rule="evenodd" clip-rule="evenodd" d="M53.6757 141.627C53.6462 141.632 53.564 141.627 53.564 141.627L53.5657 141.636C53.4741 141.511 53.38 141.384 53.2852 141.257C52.4296 140.107 51.5155 138.878 51.7621 137.52C52.9466 131.065 57.1038 125.784 63.0814 123.207C63.2309 123.425 63.3675 123.685 63.4798 123.98L63.4794 123.982C63.4322 124.233 63.3851 124.484 63.3362 124.725C62.9419 126.589 62.7285 128.502 62.6876 130.416C57.734 134.619 55.0239 139.13 53.6757 141.627ZM55.012 142.661C55.0254 142.913 54.988 143.163 54.9073 143.339C54.6653 143.796 54.2931 144.115 53.9123 144.441C53.7534 144.577 53.5929 144.714 53.4398 144.863C53.7543 146.664 54.7043 148.273 55.9672 149.584C56.1957 149.615 56.4245 149.648 56.6534 149.681C57.1111 149.748 57.5687 149.814 58.0234 149.863C59.1418 152.436 60.1261 155.286 60.8711 157.986C60.7687 158.174 60.7101 158.429 60.6511 158.687C60.5907 158.95 60.5297 159.215 60.4209 159.413C60.5199 159.907 60.6077 160.367 60.6947 160.824C60.8135 161.446 60.9306 162.06 61.0723 162.738C61.8983 163.171 62.7943 163.542 63.7189 163.786C67.2002 163.228 70.3615 161.418 73.1024 159.174C72.5785 157.683 72.0134 155.956 72.0537 154.387C69.8147 155.499 67.4659 156.853 65.6007 158.538C67.0715 155.756 69.2808 153.138 71.9755 151.5C71.7387 148.925 70.9958 146.296 69.9627 143.921C67.6954 145.258 65.2319 146.339 62.8004 147.406C62.2154 147.663 61.6323 147.918 61.0542 148.177C63.5516 145.874 66.3008 143.852 69.2328 142.122C68.2822 139.174 66.5276 136.499 64.2131 134.45C62.654 135.801 61.0068 137.288 59.3512 138.783C57.8931 140.099 56.4286 141.421 55.012 142.661Z" fill="url(#paint13_linear_70_2062)"/>
<path d="M76.0001 118.636C75.2268 121.175 76.998 124.293 77.4256 126.916L77.4158 126.918C77.0355 127.005 76.675 127.088 76.3063 127.183C76.8559 128.182 77.3991 129.203 77.9226 130.227C79.1464 130.094 80.501 129.898 81.29 128.958C81.679 128.515 81.8847 127.952 82.0413 127.397C82.6524 125.323 82.8095 123.145 82.8913 121.001C82.9571 119.113 82.9604 117.216 83.1609 115.345C83.3171 113.685 83.8345 112.235 84.2821 110.676C82.9612 109.731 81.3447 109.182 79.8286 109.731C77.9963 112.475 76.9671 115.465 76.0001 118.636Z" fill="url(#paint14_linear_70_2062)"/>
</g>
<g clip-path="url(#clip1_70_2062)">
<path fill-rule="evenodd" clip-rule="evenodd" d="M186.456 43.6865C186.456 43.6865 154.576 5.9635 152.119 6.2379C149.663 6.51608 139.924 56.7849 139.924 56.7849L186.456 43.6865Z" fill="#49CBF4"/>
<path fill-rule="evenodd" clip-rule="evenodd" d="M185.957 43.1473C182.085 39.8635 147.102 49.0809 140.47 55.9518C133.367 63.3069 194.392 50.3022 185.957 43.1473Z" fill="url(#paint15_linear_70_2062)"/>
<path fill-rule="evenodd" clip-rule="evenodd" d="M183.359 44.0303C179.959 41.2272 149 49.402 143.093 55.3651C136.771 61.7477 190.758 50.1347 183.359 44.0303Z" fill="#14063D"/>
<path opacity="0.2" fill-rule="evenodd" clip-rule="evenodd" d="M183.763 44.444C184.901 44.7455 180.441 49.6179 172.518 51.8811C164.594 54.1442 153.351 51.8182 152.112 51.361C150.869 50.9048 173.487 41.7107 183.766 44.443L183.763 44.444Z" fill="#49CBF4"/>
<path fill-rule="evenodd" clip-rule="evenodd" d="M180.926 37.2027C180.926 37.2027 165.491 24.3793 145.209 31.1156L144.27 35.4755C144.27 35.4755 158.002 26.4344 184.018 40.8208L180.926 37.2027Z" fill="#800BF5"/>
<path fill-rule="evenodd" clip-rule="evenodd" d="M166.819 45.0651C166.819 45.0651 153.843 40.5264 142.634 43.2849L141.702 47.8433C141.702 47.8433 149.183 44.3258 158.663 47.3118L166.819 45.0651Z" fill="#800BF5"/>
<path fill-rule="evenodd" clip-rule="evenodd" d="M170.453 25.1391C170.453 25.1391 159.307 17.831 147.735 19.9959L148.945 15.9933C148.945 15.9933 155.105 13.2896 165.437 19.4932L170.453 25.1391Z" fill="#800BF5"/>
<g style="mix-blend-mode:soft-light" opacity="0.5">
<path fill-rule="evenodd" clip-rule="evenodd" d="M181.662 39.8313C182.25 40.8524 162.02 46.6452 156.402 44.6467C150.783 42.6482 151.744 9.69437 152.004 7.69418C152.26 5.69505 175.943 29.8746 181.662 39.8313Z" fill="white"/>
</g>
<g style="mix-blend-mode:multiply" opacity="0.4">
<path fill-rule="evenodd" clip-rule="evenodd" d="M150.51 9.62014C150.784 8.78605 153.592 31.2109 152.18 38.2162C150.772 45.2203 143.022 49.7916 143.022 49.7916C143.022 49.7916 145.672 24.3244 150.51 9.62014Z" fill="#B57CBA"/>
</g>
<path fill-rule="evenodd" clip-rule="evenodd" d="M168.336 29.3439C169.803 30.1912 167.447 26.7464 165.925 25.8739C164.402 25.0014 164.171 26.9444 168.336 29.3439Z" fill="white"/>
<path fill-rule="evenodd" clip-rule="evenodd" d="M178.213 42.5898C178.213 42.5898 175.193 39.4015 173.954 39.1325C172.715 38.8635 173.876 43.4873 173.876 43.4873L178.209 42.5909L178.213 42.5898Z" fill="white"/>
</g>
<defs>
<linearGradient id="paint0_linear_70_2062" x1="90.8547" y1="239.148" x2="69.0716" y2="242.952" gradientUnits="userSpaceOnUse">
<stop stop-color="#800BF5"/>
<stop offset="1" stop-color="#25C6F9"/>
</linearGradient>
<linearGradient id="paint1_linear_70_2062" x1="77.2048" y1="294.371" x2="66.7554" y2="296.195" gradientUnits="userSpaceOnUse">
<stop stop-color="#800BF5"/>
<stop offset="1" stop-color="#25C6F9"/>
</linearGradient>
<linearGradient id="paint2_linear_70_2062" x1="62.0206" y1="301.877" x2="55.3918" y2="303.034" gradientUnits="userSpaceOnUse">
<stop stop-color="#800BF5"/>
<stop offset="1" stop-color="#25C6F9"/>
</linearGradient>
<linearGradient id="paint3_linear_70_2062" x1="122.671" y1="186.752" x2="100.209" y2="190.674" gradientUnits="userSpaceOnUse">
<stop stop-color="#800BF5"/>
<stop offset="1" stop-color="#25C6F9"/>
</linearGradient>
<linearGradient id="paint4_linear_70_2062" x1="199.939" y1="102.479" x2="196.393" y2="103.099" gradientUnits="userSpaceOnUse">
<stop stop-color="#800BF5"/>
<stop offset="1" stop-color="#25C6F9"/>
</linearGradient>
<linearGradient id="paint5_linear_70_2062" x1="121.032" y1="84.9576" x2="171.87" y2="145.152" gradientUnits="userSpaceOnUse">
<stop stop-color="#3D4A4A"/>
<stop offset="0.51" stop-color="#1C2222"/>
<stop offset="1"/>
</linearGradient>
<linearGradient id="paint6_linear_70_2062" x1="134.694" y1="104.565" x2="142.23" y2="165.101" gradientUnits="userSpaceOnUse">
<stop stop-color="#3D4A4A"/>
<stop offset="0.51" stop-color="#1C2222"/>
<stop offset="1"/>
</linearGradient>
<linearGradient id="paint7_linear_70_2062" x1="144.139" y1="103.389" x2="151.684" y2="163.914" gradientUnits="userSpaceOnUse">
<stop stop-color="#3D4A4A"/>
<stop offset="0.51" stop-color="#1C2222"/>
<stop offset="1"/>
</linearGradient>
<linearGradient id="paint8_linear_70_2062" x1="257.56" y1="122.312" x2="244.92" y2="124.519" gradientUnits="userSpaceOnUse">
<stop stop-color="#800BF5"/>
<stop offset="1" stop-color="#25C6F9"/>
</linearGradient>
<linearGradient id="paint9_linear_70_2062" x1="208.773" y1="156.723" x2="176.455" y2="162.366" gradientUnits="userSpaceOnUse">
<stop stop-color="#800BF5"/>
<stop offset="1" stop-color="#25C6F9"/>
</linearGradient>
<linearGradient id="paint10_linear_70_2062" x1="87.9406" y1="212.675" x2="74.5713" y2="215.009" gradientUnits="userSpaceOnUse">
<stop stop-color="#800BF5"/>
<stop offset="1" stop-color="#25C6F9"/>
</linearGradient>
<linearGradient id="paint11_linear_70_2062" x1="74.5786" y1="207.648" x2="60.4932" y2="210.108" gradientUnits="userSpaceOnUse">
<stop stop-color="#800BF5"/>
<stop offset="1" stop-color="#25C6F9"/>
</linearGradient>
<linearGradient id="paint12_linear_70_2062" x1="144.775" y1="205.221" x2="115.092" y2="210.404" gradientUnits="userSpaceOnUse">
<stop stop-color="#800BF5"/>
<stop offset="1" stop-color="#25C6F9"/>
</linearGradient>
<linearGradient id="paint13_linear_70_2062" x1="78.6565" y1="135.528" x2="53.0311" y2="140.002" gradientUnits="userSpaceOnUse">
<stop stop-color="#800BF5"/>
<stop offset="1" stop-color="#25C6F9"/>
</linearGradient>
<linearGradient id="paint14_linear_70_2062" x1="82.8871" y1="119.27" x2="75.4412" y2="120.57" gradientUnits="userSpaceOnUse">
<stop stop-color="#800BF5"/>
<stop offset="1" stop-color="#25C6F9"/>
</linearGradient>
<linearGradient id="paint15_linear_70_2062" x1="186.654" y1="44.0353" x2="139.917" y2="57.1715" gradientUnits="userSpaceOnUse">
<stop stop-color="#5283FB"/>
<stop offset="1" stop-color="#0052C2"/>
</linearGradient>
<clipPath id="clip0_70_2062">
<rect width="254.67" height="233.348" fill="white" transform="matrix(-0.985052 0.172259 0.172006 0.985096 250.863 55.8152)"/>
</clipPath>
<clipPath id="clip1_70_2062">
<rect width="48.548" height="50.1723" fill="white" transform="matrix(-0.96259 0.270963 0.270582 0.962697 174.277 0)"/>
</clipPath>
</defs>
</svg>
