<svg width="17" height="16" viewBox="0 0 17 16" fill="none" xmlns="http://www.w3.org/2000/svg">
<path d="M8.49999 11.9982C10.7091 11.9982 12.5 10.2074 12.5 7.99822C12.5 5.78909 10.7091 3.99823 8.49999 3.99823C6.29086 3.99823 4.5 5.78909 4.5 7.99822C4.5 10.2074 6.29086 11.9982 8.49999 11.9982Z" fill="white"/>
<path d="M8.49981 4.00003H15.4269C14.7249 2.78383 13.7152 1.77387 12.4991 1.07171C11.283 0.369548 9.90351 -6.74389e-05 8.49928 3.05371e-05C7.09506 0.000128513 5.7156 0.369936 4.49963 1.07227C3.28366 1.7746 2.27403 2.7847 1.57227 4.001L5.03579 10L5.03889 9.99922C4.68656 9.39164 4.50062 8.70192 4.49984 7.99958C4.49905 7.29723 4.68343 6.6071 5.03439 5.99873C5.38536 5.39036 5.8905 4.88527 6.49891 4.53437C7.10731 4.18348 7.79747 3.99917 8.49981 4.00003V4.00003Z" fill="url(#paint0_linear_209_2044)"/>
<path d="M8.50064 11.1667C10.2495 11.1667 11.6673 9.7489 11.6673 8C11.6673 6.2511 10.2495 4.83334 8.50064 4.83334C6.75175 4.83334 5.33398 6.2511 5.33398 8C5.33398 9.7489 6.75175 11.1667 8.50064 11.1667Z" fill="#1A73E8"/>
<path d="M11.963 10.001L8.49948 16C9.9037 16.0002 11.2832 15.6306 12.4993 14.9286C13.7155 14.2265 14.7253 13.2166 15.4273 12.0005C16.1293 10.7843 16.4988 9.40479 16.4986 8.00056C16.4983 6.59634 16.1284 5.21693 15.4259 4.00104H8.49888L8.49805 4.00414C9.20039 4.00278 9.89068 4.18661 10.4993 4.5371C11.108 4.88758 11.6135 5.39233 11.9648 6.00046C12.3162 6.60859 12.5011 7.29861 12.5007 8.00095C12.5004 8.7033 12.3149 9.39315 11.963 10.001V10.001Z" fill="url(#paint1_linear_209_2044)"/>
<path d="M5.03563 10.001L1.5721 4.00201C0.869813 5.21801 0.500052 6.59748 0.5 8.00171C0.499948 9.40593 0.869606 10.7854 1.57181 12.0015C2.27401 13.2175 3.28399 14.2273 4.50022 14.9292C5.71644 15.6311 7.09602 16.0004 8.50025 16L11.9638 10.001L11.9615 9.9987C11.6115 10.6076 11.1072 11.1135 10.4993 11.4654C9.89147 11.8172 9.2016 12.0026 8.49926 12.0028C7.79692 12.0031 7.10692 11.8181 6.49883 11.4667C5.89074 11.1153 5.38605 10.6097 5.03563 10.001V10.001Z" fill="url(#paint2_linear_209_2044)"/>
<defs>
<linearGradient id="paint0_linear_209_2044" x1="1.57227" y1="5.00003" x2="15.4269" y2="5.00003" gradientUnits="userSpaceOnUse">
<stop stop-color="#D93025"/>
<stop offset="1" stop-color="#EA4335"/>
</linearGradient>
<linearGradient id="paint1_linear_209_2044" x1="7.40655" y1="15.893" x2="14.3339" y2="3.89457" gradientUnits="userSpaceOnUse">
<stop stop-color="#FCC934"/>
<stop offset="1" stop-color="#FBBC04"/>
</linearGradient>
<linearGradient id="paint2_linear_209_2044" x1="9.36545" y1="15.5005" x2="2.43813" y2="3.50202" gradientUnits="userSpaceOnUse">
<stop stop-color="#1E8E3E"/>
<stop offset="1" stop-color="#34A853"/>
</linearGradient>
</defs>
</svg>
