<svg width="336" height="348" viewBox="0 0 336 348" fill="none" xmlns="http://www.w3.org/2000/svg">
<g clip-path="url(#clip0_70_1811)">
<path d="M50.7311 159.049C46.0391 165.492 42.0092 172.415 38.7327 179.668C56.4392 207.256 82.0684 230.282 111.374 245.005C124.342 243.956 138.658 239.964 149.492 232.756C134.868 217.634 121.329 202.683 105.129 189.248C88.9295 175.813 70.424 166.507 50.7425 159.037L50.7311 159.049Z" fill="#12071D"/>
<path d="M277.226 289.232C280.879 298.424 287.204 306.556 295.195 312.395C296.497 313.364 297.844 314.254 299.225 315.086C299.385 315.178 299.522 315.257 299.693 315.337C300.184 315.588 300.686 315.748 301.223 315.873C304.511 316.58 308.472 315.075 311.498 313.49C315.87 311.209 318.564 307.833 319.843 303.214C323.736 289.118 329.798 275.797 334.992 262.101C335.7 260.207 336.248 258.348 335.86 256.626C335.677 255.748 335.255 254.904 334.49 254.106C333.656 253.251 332.766 252.452 331.807 251.7C330.254 250.468 328.565 249.373 326.898 248.404C323.051 246.168 318.279 245.746 313.838 245.781C307.57 247.708 302.045 250.787 296.965 254.516C293.049 257.39 289.407 260.652 285.857 264.062C285.834 264.051 285.823 264.028 285.788 264.005C282.112 261.074 278.573 257.858 275.171 254.608C274.464 257.117 273.961 259.706 273.664 262.351C272.626 271.395 273.916 280.975 277.215 289.266L277.226 289.232Z" fill="#CE9CFF"/>
<path d="M287.136 278.42C290.401 275.079 293.529 272.011 297.354 269.331C295.721 264.575 295.595 259.329 296.965 254.482C293.05 257.356 289.408 260.618 285.857 264.028C285.835 264.016 285.823 263.994 285.789 263.971C284.625 268.841 285.252 273.71 287.136 278.42Z" fill="url(#paint0_linear_70_1811)"/>
<path d="M295.207 312.395C296.508 313.364 297.856 314.254 299.237 315.086C299.397 315.177 299.534 315.257 299.705 315.337C303.233 317.059 307.982 315.326 311.509 313.49C315.882 311.209 318.576 307.833 319.854 303.214C323.747 289.118 329.809 275.797 335.004 262.1C335.711 260.207 336.259 258.348 335.871 256.626C335.689 255.748 335.266 254.904 334.501 254.106C333.668 253.25 332.778 252.452 331.819 251.699C328.268 251.517 324.033 253.193 321.35 254.744C317.457 257.003 314.283 260.299 311.589 263.902C301.806 276.983 298.369 293.611 295.561 309.692C295.401 310.593 295.241 311.505 295.207 312.429V312.395Z" fill="#800BF5"/>
<g style="mix-blend-mode:multiply">
<path d="M300.378 315.611C300.561 315.68 300.743 315.725 300.938 315.771C300.755 315.725 300.561 315.668 300.378 315.611Z" fill="#F2C6D5"/>
</g>
<g style="mix-blend-mode:multiply">
<path d="M301.235 315.851C301.189 315.851 301.155 315.828 301.109 315.816C301.155 315.816 301.2 315.828 301.246 315.839L301.235 315.851Z" fill="#F2C6D5"/>
</g>
<g style="mix-blend-mode:multiply" opacity="0.2">
<path d="M273.677 262.317C278.483 263.982 281.828 268.624 286.691 270.164C288.917 270.871 291.303 270.871 293.609 271.258C296.223 271.715 298.724 272.661 301.075 273.859C303.256 274.976 305.299 276.311 307.297 277.702C308.325 278.409 309.695 279.048 310.402 280.051C308.256 284.476 306.258 288.97 304.466 293.532C301.715 300.511 299.374 307.867 299.694 315.314C299.523 315.235 299.386 315.155 299.226 315.064C297.845 314.231 296.486 313.341 295.196 312.372C287.205 306.533 280.88 298.401 277.227 289.209C273.928 280.93 272.638 271.338 273.677 262.294V262.317Z" fill="#800BF5"/>
</g>
<g style="mix-blend-mode:multiply">
<path d="M299.693 315.326C303.221 317.048 307.97 315.314 311.498 313.478C315.87 311.197 318.564 307.822 319.843 303.203C323.736 289.107 329.798 275.786 334.992 262.089C335.7 260.196 336.248 258.337 335.86 256.615C334.216 255.6 331.67 255.76 329.855 256.239C326.487 257.117 323.542 259.261 321.201 261.827C318.872 264.404 317.069 267.415 315.368 270.449C311.224 277.896 307.57 285.617 304.454 293.543C301.702 300.523 299.362 307.879 299.682 315.326H299.693Z" fill="#800BF5"/>
</g>
<path d="M129.959 128.176C129.891 129.921 130.53 131.632 131.466 133.126C135.073 138.862 141.661 144.166 148.179 146.07C154.39 147.872 161.022 145.99 167.187 144.04C173.82 141.942 180.441 139.741 186.903 137.129C187.416 136.924 187.942 136.718 188.455 136.49C194.266 134.061 200.796 132.077 205.454 127.652C208.057 125.177 210.568 122.497 213 119.726C215.98 116.35 218.822 112.826 221.539 109.382C224.165 106.063 226.608 102.562 228.606 98.8209C230.364 95.5592 231.791 92.115 232.716 88.4997C233.092 87.0285 232.613 85.4319 231.757 84.1774C230.889 82.9229 229.668 81.9535 228.435 81.0411C222.475 76.6959 215.854 73.6623 208.673 71.9973C206.733 73.3202 204.849 74.7458 203.034 76.2512C196.058 82.0219 190.122 89.0243 185.601 96.8707C184.083 96.2777 183.078 96.4145 181.48 96.7566C180.67 98.1708 179.859 99.3341 179.825 100.76C179.802 101.558 173.569 102.026 172.553 102.288C170.053 102.927 167.587 103.645 165.155 104.489C160.417 106.097 155.794 108.093 151.353 110.397C146.775 112.78 142.38 115.494 138.201 118.505C136.318 119.851 134.023 121.254 132.334 123.044C130.998 124.458 130.039 126.112 129.959 128.188V128.176Z" fill="#CE9CFF"/>
<path d="M185.784 129.978C186.035 132.385 186.48 134.757 186.903 137.129C187.416 136.924 187.942 136.718 188.455 136.49C194.266 134.061 200.796 132.077 205.454 127.652C208.057 125.177 210.568 122.497 213 119.726C210.945 118.847 208.89 117.946 206.835 117.057C200.225 122.2 193.547 126.842 185.795 129.978H185.784Z" fill="url(#paint1_linear_70_1811)"/>
<g style="mix-blend-mode:multiply" opacity="0.2">
<path d="M135.471 126.796C135.437 127.789 136.076 128.655 136.704 129.419C138.462 131.621 140.312 133.742 142.23 135.806C144.536 138.292 147.047 140.756 150.244 141.907C153.977 143.265 158.11 142.672 161.98 141.805C185.759 136.502 207.484 121.539 220.396 100.908C223.204 100.532 225.967 99.8359 228.616 98.8209C230.374 95.5592 231.801 92.115 232.726 88.4997C233.102 87.0285 232.623 85.4319 231.767 84.1774C230.899 82.9229 229.677 81.9535 228.444 81.0411C222.485 76.6959 215.864 73.6623 208.683 71.9973C206.742 73.3202 204.859 74.7458 203.044 76.2512C203.044 76.3082 203.055 76.3538 203.066 76.4108C203.649 79.3076 204.916 82.1017 204.973 85.0555C196.662 90.8377 189.024 97.5892 182.255 105.105C182.917 108.595 184.173 111.993 185.965 115.072C183.168 112.506 180.371 109.929 177.563 107.374C176.821 110.157 176.592 113.065 176.878 115.928C175.439 113.499 173.624 111.491 173.099 108.709C160.507 111.412 148.429 116.566 137.777 123.82C136.704 124.561 135.517 125.508 135.483 126.796H135.471Z" fill="#800BF5"/>
</g>
<path d="M-0.0025177 136.65C1.40166 144.941 5.18042 153.278 10.2834 159.961C30.4558 167.556 51.3816 175.676 71.0402 184.538C77.6387 192.339 85.0135 199.489 92.982 205.876C97.0918 209.16 101.35 212.262 105.768 215.114C108.908 217.144 111.807 218.82 114.604 221.398C117.744 224.26 121.979 226.929 126.34 225.115C129.103 210.962 138.726 199.432 150.268 190.788C161.799 182.143 175.235 176.475 188.524 170.875C188.626 169.746 188.718 168.663 188.752 167.625C188.843 164.728 188.547 162.037 187.473 159.106C180.19 155.924 173.089 152.137 165.497 149.811C154.241 140.995 144.4 129.511 132.242 121.436C130.484 120.262 128.669 119.155 126.797 118.152C111.727 109.997 95.8817 103.291 80.4242 95.8557C70.2639 90.9631 59.9893 86.8689 48.8243 85.2608C29.0972 98.6156 12.3155 116.281 -0.013916 136.661L-0.0025177 136.65Z" fill="#CE9CFF"/>
<path d="M108.28 170.396C104.09 171.411 99.786 171.981 95.4707 172.084C92.3769 166.131 90.1279 158.935 87.0342 152.981C82.3421 150.404 76.7368 149.263 72.6384 145.819C68.54 142.386 65.0581 137.996 63.574 132.864C64.7613 133.308 66.6678 133.172 67.9007 132.864C72.8667 140.847 80.5498 147.906 89.3631 151.191C92.4226 156.574 94.546 163.69 96.521 169.552C99.3978 169.758 103.485 167.978 106.065 166.69C106.887 167.887 107.458 169.187 108.291 170.385L108.28 170.396Z" fill="#14063D"/>
<g style="mix-blend-mode:multiply" opacity="0.2">
<path d="M-0.00259399 136.65C1.4016 144.941 5.18034 153.278 10.2834 159.961C15.2151 161.82 20.2154 163.713 25.2271 165.64C40.6389 171.582 56.1991 177.843 71.0401 184.526C77.6386 192.327 85.0135 199.478 92.9819 205.864C97.0917 209.149 101.35 212.251 105.768 215.102C108.907 217.132 111.807 218.809 114.604 221.386C117.744 224.249 121.979 226.917 126.34 225.104C129.103 210.951 138.726 199.421 150.268 190.776C161.798 182.131 175.235 176.463 188.524 170.864C188.626 169.735 188.718 168.651 188.752 167.613C185.19 168.001 181.217 170.316 178.363 171.366C171.845 173.749 165.326 176.133 158.819 178.528C161.467 173.567 165.052 169.107 169.333 165.447C153.305 174.103 140.199 186.842 130.575 202.306C126.66 203.96 122.881 205.374 118.645 205.716C106.442 197.961 95.4592 190.138 85.2988 179.839C83.8604 173.042 81.6228 166.701 77.8099 160.885C77.7414 162.573 77.2733 164.249 77.2162 165.937C67.992 164.968 59.27 161.432 52.1806 155.433C50.5709 155.604 49.8974 156.197 48.2877 156.357C46.3698 153.962 45.0113 151.373 43.8468 148.534C46.267 147.074 48.7444 145.283 50.6851 143.23C48.1165 143.367 45.5478 142.865 42.9792 143.025C42.5796 142.136 42.7166 140.881 42.9678 139.934C46.3013 138.566 49.8974 136.49 52.6943 134.221C53.4364 134.814 54.3839 135.167 55.1031 135.749C54.7492 136.912 54.8292 138.076 54.4867 139.262C56.1306 139.182 57.7859 139.125 59.4527 139.045C59.3956 139.969 59.3499 140.892 59.2929 141.816C70.709 144.975 82.3763 148.157 94.2034 147.587C109.17 146.857 132.676 138.486 132.253 121.436C130.495 120.262 128.68 119.155 126.808 118.152C111.739 109.997 95.893 103.291 80.4356 95.8557C70.2752 90.9631 60.0007 86.8689 48.8357 85.2608C32.4763 96.3461 18.1491 110.374 6.68729 126.466C4.32414 129.784 2.08659 133.172 -0.0139771 136.65H-0.00259399Z" fill="#800BF5"/>
</g>
<path d="M-0.00312614 136.65C1.40106 144.941 5.17982 153.278 10.2828 159.961C15.2146 161.82 20.2149 163.713 25.2266 165.64C25.2037 163.28 25.0211 160.793 25.1923 158.581C22.6009 155.65 19.9866 152.993 17.3951 150.062C18.8564 145.26 19.3929 140.459 19.6897 135.441C15.6598 132.02 11.3217 129.009 6.70957 126.443C4.34643 129.762 2.10887 133.149 0.00830078 136.627L-0.00312614 136.65Z" fill="url(#paint2_linear_70_1811)"/>
<path d="M136.341 72.7956C138.989 77.6311 140.919 82.8772 142.037 88.2716C144.218 98.7866 143.008 109.541 136.512 118.323C134.936 120.444 133.156 122.406 131.249 124.219C126.591 128.678 121.111 132.305 115.563 135.566C114.616 136.137 113.657 136.696 112.709 137.243C103.69 142.398 92.8109 144.211 82.6162 142.25C65.5263 138.954 52.352 125.508 47.6143 109.256C46.644 105.937 46.0275 102.505 45.7992 99.0033C45.7421 98.1594 45.7193 97.3269 45.7193 96.4943C45.685 93.837 45.8905 91.2026 46.3129 88.6365C47.249 82.8658 49.2697 77.3916 52.1694 72.4078C57.6149 63.0674 66.1313 55.5176 76.4858 51.218C77.4105 50.8417 78.3124 50.4767 79.2485 50.1574C89.2148 46.6676 101.384 45.55 111.225 49.8609C111.259 49.8837 111.294 49.9065 111.339 49.9179C111.853 50.1574 112.367 50.3969 112.88 50.6478C113.154 50.7733 113.417 50.8987 113.691 51.0242C123.189 55.8141 131.226 63.4894 136.352 72.8184L136.341 72.7956Z" fill="#CE9CFF"/>
<g style="mix-blend-mode:multiply" opacity="0.4">
<path d="M114.537 134.301C114.879 134.7 115.233 135.122 115.553 135.555C114.605 136.125 113.646 136.684 112.699 137.232C103.68 142.386 92.8004 144.2 82.6057 142.238C65.5158 138.942 52.3416 125.496 47.6039 109.245C46.6449 105.059 45.9713 100.839 45.7088 96.4829C45.6859 96.232 45.6745 95.9811 45.6517 95.7302C45.5375 93.3581 45.5718 90.8377 46.291 88.6252C46.5992 87.69 47.0445 86.8118 47.6381 86.0135C50.8232 81.8166 57.4446 81.8394 61.9882 84.5081C66.5318 87.154 69.5685 91.7044 72.7308 95.9013C79.0782 104.284 86.5443 111.799 94.8781 118.209C101.614 123.364 108.988 127.891 114.514 134.312L114.537 134.301Z" fill="#800BF5"/>
</g>
<path d="M136.341 72.7955C138.989 77.6311 140.919 82.8772 142.037 88.2716C144.218 98.7866 143.008 109.541 136.512 118.323C134.936 120.444 133.156 122.406 131.249 124.219C127.733 127.367 123.76 130.001 119.468 131.94C109.547 136.422 97.9139 137.118 87.6279 133.593C77.3306 130.047 68.5287 122.234 64.0878 112.312C66.6451 89.3892 80.1161 68.7241 99.8775 56.8177C104.181 54.2289 108.782 52.0506 113.691 51.0128C123.189 55.8027 131.226 63.478 136.352 72.8069L136.341 72.7955Z" fill="#38217B"/>
<path d="M67.2838 104.66C72.0785 79.2277 88.415 66.9564 95.4931 62.0752C103.29 56.6922 110.939 53.5218 119.49 54.4113L121.762 56.0422L122.789 53.2937C122.789 53.2937 100.528 47.5685 76.919 77.4258C71.4621 84.3028 67.9345 94.6924 66.2677 103.485L67.2838 104.66Z" fill="#14063D"/>
<path d="M76.919 77.4258C100.528 47.5572 122.789 53.2937 122.789 53.2937L113.234 48.1388C113.234 48.1388 90.9608 49.3477 75.355 71.7463C65.7312 85.5687 63.2082 101.227 63.2082 101.227L66.2677 103.497C67.9345 94.6924 71.4621 84.3142 76.919 77.4372V77.4258Z" fill="#800BF5"/>
<path d="M72.982 121.653C82.777 130.662 96.2024 134.403 109.365 132.385C122.528 130.366 134.252 121.721 140.885 110.191C141.422 110.328 141.913 110.773 142.449 110.91C137.609 117.616 132.118 124.812 125.028 129.089C117.311 133.742 107.881 135.122 98.9423 133.913C81.4299 132.442 72.708 123.021 72.708 123.021L72.9934 121.676L72.982 121.653Z" fill="#14063D"/>
<path d="M125.027 129.077C117.309 133.73 107.879 135.11 98.9407 133.901C81.4283 132.43 72.7063 123.01 72.7063 123.01L72.8662 122.269L71.5876 124.937C79.7159 134.871 93.3125 139.695 106.064 138.155C118.816 136.604 130.506 129.089 138.121 118.756C139.856 116.395 141.215 113.556 142.459 110.91C137.619 117.616 132.127 124.812 125.038 129.089L125.027 129.077Z" fill="#800BF5"/>
<path d="M72.662 114.799C72.6848 114.913 72.719 115.004 72.7419 115.107C73.6894 119.155 73.5753 128.005 67.0452 127.56C66.7142 127.538 66.4059 127.492 66.0977 127.412C64.3624 127.024 62.8441 125.975 61.5312 124.835C57.6383 121.413 54.6473 116.623 53.6769 111.446C53.0719 108.241 52.8321 103.029 56.2798 101.022C56.588 100.839 56.9305 100.68 57.3073 100.566C64.8647 98.0681 71.2349 109.199 72.662 114.787V114.799Z" fill="#14063D"/>
<path d="M72.662 114.799C72.6848 114.913 72.719 115.004 72.7419 115.107C73.6894 119.155 73.5753 128.005 67.0452 127.56C66.7142 127.538 66.4059 127.492 66.0977 127.412C68.4494 126.853 70.2646 124.789 71.0066 122.485C71.7487 120.17 71.5432 117.65 70.9153 115.3C69.4769 109.872 65.8237 105.059 60.9604 102.219C59.5562 101.398 57.8552 100.725 56.2912 101.033C56.5995 100.851 56.9419 100.691 57.3187 100.577C64.8762 98.0795 71.2464 109.21 72.6734 114.799H72.662Z" fill="#800BF5"/>
<path d="M65.0711 115.369C65.5277 116.749 65.3108 119.532 63.3815 119.463C61.4522 119.406 59.7512 117 58.9064 115.551C58.0844 114.137 57.6963 112.404 57.8789 110.773C57.936 110.225 58.1872 109.667 58.6438 109.359C59.9567 108.458 62.2056 110.282 62.7993 111.377C62.354 110.841 61.7604 110.431 61.1439 110.111C60.5275 109.792 59.7055 109.769 59.1918 110.237C58.5639 110.796 58.6324 111.788 58.8265 112.598C59.2489 114.32 60.0594 115.951 61.201 117.308C61.7832 118.015 62.6052 118.699 63.5071 118.551C64.1235 118.448 64.6258 117.935 64.8428 117.342C65.0597 116.749 65.2423 115.973 65.0825 115.369H65.0711Z" fill="#49CBF4"/>
<path style="mix-blend-mode:screen" d="M119.924 56.544C128.326 62.6341 139.389 77.403 140.645 92.9133C140.199 99.6876 135.427 105.812 129.228 108.606C123.029 111.4 115.666 111.069 109.399 108.458C103.12 105.846 97.8796 101.102 93.9411 95.5705C90.0025 90.0393 87.274 83.7212 85.105 77.2776C93.2561 65.7019 105.905 56.8063 119.924 56.544Z" fill="url(#paint3_linear_70_1811)"/>
<path style="mix-blend-mode:screen" d="M125.142 87.5645C126.546 88.34 128.122 89.0471 129.697 88.7848C131.238 88.5225 132.494 87.325 133.179 85.9222C133.864 84.5195 134.035 82.9228 134.047 81.3604C134.104 76.7871 132.917 72.2025 130.645 68.2223C128.83 65.0404 126.261 62.2121 122.996 60.5242C119.731 58.8477 115.747 58.4257 112.368 59.8513C97.0585 66.3063 118.11 83.6983 125.142 87.5645Z" fill="url(#paint4_linear_70_1811)"/>
<path style="mix-blend-mode:screen" d="M138.898 99.163C137.231 89.7998 126.066 98.3076 127.482 105.014C128.189 108.344 130.518 114.114 134.48 110.716C137.425 108.184 139.583 102.995 138.898 99.163Z" fill="url(#paint5_linear_70_1811)"/>
<path d="M256.255 36.1754C258.572 32.3891 258.846 27.5649 257.533 23.3224C256.289 19.308 253.435 15.5559 249.417 14.3014C247.031 13.5487 244.428 13.7311 241.996 14.3128C239.77 14.8488 237.589 15.7498 235.831 17.2209C233.092 19.5133 231.585 23.1399 231.642 26.7096C231.699 30.2792 233.24 33.769 235.649 36.3921C237.989 38.9353 241.003 40.5548 244.256 41.6154C247.088 42.5392 250.284 41.547 252.682 39.9161C254.12 38.9353 255.353 37.658 256.255 36.1754Z" fill="#527F3D"/>
<path d="M252.327 37.2132C249.29 40.0073 244.838 39.9389 241.344 38.0685C237.223 35.856 235.02 31.3626 234.712 26.8008C234.54 24.2576 235.1 21.6231 236.504 19.4676C237.817 17.449 240.374 16.3656 242.68 16.0349C247.966 15.2707 252.943 17.0499 255.204 22.1933C257.361 27.0973 256.311 33.5409 252.327 37.2246V37.2132Z" fill="white"/>
<path d="M221.686 34.0655C219.631 26.8692 217.188 19.8098 215.133 12.6021C207.895 10.9484 200.349 8.23412 192.963 7.44721C191.878 7.33316 191.136 6.24972 190.942 5.17769C190.748 4.08285 190.976 2.90817 191.593 1.9844C192.198 1.04922 192.86 0.262306 193.945 0C201.833 2.68008 209.277 6.2041 216.56 10.2527C218.695 17.5745 220.818 24.8962 222.953 32.2066C222.257 32.9821 222.394 33.29 221.697 34.0655H221.686Z" fill="white"/>
<path d="M203.216 55.8939C203.136 62.6112 203.993 69.3514 205.751 75.8406C206.607 78.9769 206.185 82.4438 206.732 85.6485C207.475 89.9823 212.486 92.6282 216.779 93.5633C221.083 94.4985 225.546 93.9853 229.919 93.4607C235.821 92.7536 238.732 85.6029 240.638 79.9805C242.545 74.358 242.899 68.3364 243.081 62.3946C243.139 60.5698 243.127 58.5968 242.008 57.1484C241.095 55.9624 239.588 55.3921 238.127 55.0614C232.008 53.6929 225.603 55.6887 219.382 54.936C216.619 54.6052 213.936 53.7385 211.162 53.5446C208.388 53.3507 205.009 53.7727 203.193 55.8825L203.216 55.8939Z" fill="#4F009D"/>
<path d="M213.284 93.0045C222.988 94.4871 233.079 94.3845 243.502 93.0045L247.498 29.2186C234.29 26.1622 221.458 25.82 209.277 29.2186L213.272 93.0045H213.284Z" fill="#800BF5"/>
<path d="M244.473 39.8135L241.493 91.0429H214.688L212.918 39.8135C225.385 33.8603 238.091 43.8279 244.461 39.8135H244.473Z" fill="#49CBF4"/>
<g style="mix-blend-mode:multiply">
<path d="M219.769 92.5255C222.418 92.5711 224.918 92.2062 227.555 92.2518C227.475 89.4919 227.361 86.7662 227.601 84.0177C231.459 83.4133 235.249 83.0597 239.165 83.1053C240.798 74.415 241.46 65.5422 241.117 56.7151C241.083 55.9396 241.026 55.1184 240.558 54.514C240.021 53.8183 239.097 53.5788 238.24 53.3849C234.462 52.5296 230.706 51.6971 226.938 50.8303V35.0692C223.765 35.2972 220.922 35.4113 217.794 36.0157C217.885 39.6538 217.783 43.4401 217.874 47.0782C215.545 50.511 213.719 54.1947 211.629 57.7757C213.445 59.0644 215.602 60.2391 217.669 61.0602C218.502 71.1761 219.701 82.3754 219.758 92.5141L219.769 92.5255Z" fill="#49CBF4"/>
</g>
<path d="M214.768 41.9461C216.96 43.7024 218.41 46.3597 218.695 49.1538C216.492 53.4305 214.003 57.3537 210.967 61.083C210.784 62.5542 211.046 64.1281 210.864 65.5878C210.887 65.4168 208.078 63.7973 207.77 63.5692C206.674 62.7595 205.635 61.8813 204.688 60.912C203.786 59.9882 203.078 59.3267 202.861 58.0836C202.61 56.5554 202.633 54.9131 202.519 53.3621C204.516 51.2523 206.914 49.5872 209.368 48.0362C211.503 46.679 213.524 44.1586 214.757 41.9575L214.768 41.9461Z" fill="#4F009D"/>
<path d="M226.607 77.1521C227.623 77.5399 228.229 78.0987 229.028 78.8058C228.674 80.1059 228.194 81.0069 228.183 82.3412C231.402 84.5081 235.09 85.8196 238.834 86.8346C239.017 86.8917 239.211 86.9373 239.393 86.9943C243.343 88.0549 247.43 87.7812 251.392 86.7776C252.088 84.0975 252.191 81.349 252.317 78.5777C252.02 78.1101 251.415 77.3118 250.867 77.1521C250.775 72.3622 250.855 67.481 251.483 62.7253C251.495 62.5884 251.506 62.4402 251.54 62.3033C252.339 62.0296 253.07 61.7901 253.869 61.5278C253.881 61.5164 253.881 61.505 253.892 61.4936C255.502 58.7337 256.369 56.1334 256.449 52.9402C252.431 51.3093 247.499 48.8459 243.252 47.8651C243.161 47.8765 243.081 47.8879 242.99 47.9221C240.341 48.3441 237.464 49.074 234.975 49.9978C233.571 49.8039 231.733 49.61 230.352 49.4161C229.553 51.3663 229.119 53.613 229.05 55.7229C231.813 57.1028 234.667 58.1293 237.75 58.2205C238.594 59.0986 238.983 59.9654 239.827 60.8435C235.98 61.3225 231.95 62.2235 228.24 63.3982C226.927 67.903 226.345 72.499 226.596 77.1749L226.607 77.1521Z" fill="#4F009D"/>
<path d="M242.67 56.1791C243.127 56.8861 243.937 57.2511 244.713 57.5818C246.494 58.3231 248.264 59.053 250.045 59.8057C250.924 60.1821 251.826 60.547 252.705 60.9234C253.047 61.0602 253.47 61.3111 253.892 61.4936C255.502 58.7337 256.369 56.1334 256.449 52.9402C252.431 51.3093 247.499 48.8459 243.252 47.8651C243.161 47.8765 243.081 47.8879 242.99 47.9221C242.853 48.2985 242.796 48.7091 242.738 49.0968C242.544 50.6136 242.385 52.1418 242.282 53.6701C242.213 54.5368 242.19 55.472 242.659 56.1905L242.67 56.1791ZM238.811 79.0111C242.647 79.5585 246.551 78.954 250.148 77.5399C246.106 78.2242 241.974 78.1215 237.966 77.1977C238.195 75.2818 238.423 73.1035 238.651 71.1761C242.099 71.7121 245.364 71.6893 248.823 71.313C245.65 70.9138 242.168 70.3322 239.005 69.933C239.348 67.1503 239.839 64.2877 240.889 61.6989C244.451 61.5392 248.024 61.8928 251.495 62.7253C250.855 67.481 250.787 72.3622 250.878 77.1521C251.426 77.3118 252.031 78.1101 252.328 78.5777C252.214 81.349 252.111 84.0975 251.403 86.7776C247.442 87.7926 243.355 88.0549 239.405 86.9943C239.222 86.9373 239.028 86.8917 238.846 86.8346C238.56 85.9907 238.503 85.0327 238.572 84.1431C238.709 82.4895 239.04 80.6647 238.823 79.0111H238.811Z" fill="url(#paint6_linear_70_1811)"/>
<path style="mix-blend-mode:screen" d="M211.778 44.113C211.241 39.9959 210.659 35.4797 210.134 31.3626C221.927 28.5115 234.302 28.4317 246.141 31.1117C245.992 36.5289 245.604 41.9347 244.999 47.3177C242.978 46.7703 241.277 46.622 239.2 46.3939C238.48 41.1706 237.521 36.5403 236.802 31.317C229.496 30.1994 222.041 30.4731 214.952 32.5943C215.077 35.6394 215.294 38.8669 215.226 41.9119C213.959 42.7444 213.068 43.2919 211.801 44.1244L211.778 44.113Z" fill="url(#paint7_linear_70_1811)"/>
<path d="M193.888 6.28393C193.762 6.4664 193.625 6.63747 193.431 6.74012C192.826 7.07085 192.289 6.38657 192.061 5.90758C191.661 5.05223 191.604 4.04863 191.89 3.15907C192.232 2.12125 193.02 1.2545 194.036 0.866746C194.196 0.809723 194.39 0.7527 194.55 0.821127C195.246 1.11765 195.041 2.64586 194.995 3.21609C194.892 4.29953 194.516 5.36016 193.888 6.27253V6.28393Z" fill="#14063D"/>
<path d="M254.268 28.8993C256.106 31.0547 253.64 37.3843 250.409 35.742C249.656 35.3543 249.256 34.5103 248.982 33.712C248.548 32.4803 248.274 31.1916 248.137 29.8801C248.103 29.4923 248.092 29.0475 248.366 28.751C248.537 28.5685 248.799 28.4887 249.039 28.4089C249.93 28.1466 250.832 27.8729 251.768 27.8729C252.692 27.8729 253.674 28.1808 254.279 28.8879L254.268 28.8993Z" fill="#A0DD83"/>
<path d="M254.223 24.1321C254.589 21.7942 252.123 19.1939 250.216 18.2017C249.817 17.9964 249.394 17.8254 248.949 17.8368C246.666 17.9166 245.559 21.5091 245.581 23.2882C245.604 25.3638 247.111 27.4737 249.372 27.3482C251.244 27.2342 253.881 26.2534 254.223 24.1321Z" fill="#A0DD83"/>
<path d="M244.04 22.832C243.72 24.2234 242.761 25.5691 241.38 25.9113C240.021 26.2534 238.64 25.5805 237.395 24.9419C236.813 24.6453 236.208 24.3146 235.9 23.733C235.466 22.9118 235.82 21.8968 236.277 21.0757C237.042 19.7072 238.137 18.4527 239.564 17.7912C240.683 17.2666 243.001 16.8788 243.823 18.1447C244.531 19.2282 244.314 21.6916 244.051 22.832H244.04Z" fill="#A0DD83"/>
<path d="M124.593 225.594C127.128 226.917 130.165 227.67 132.356 229.495C132.573 229.677 132.779 229.86 133.007 230.031C153.122 246.682 173.432 259.888 194.769 271.315C207.612 278.181 220.832 284.397 234.622 290.304C234.679 290.874 234.714 291.445 234.759 292.026C235.045 295.505 235.376 299.086 235.787 302.769C236.015 304.845 236.266 306.943 236.54 309.087C240.73 317.424 266.359 343.586 275.469 347.92C279.922 348.194 284.294 347.703 288.404 346.472C293.587 344.944 298.381 342.241 302.503 338.42C302.663 336.812 302.754 335.193 302.754 333.562C302.765 327.027 301.338 320.481 297.388 315.246C295.938 313.319 294.397 311.437 292.89 309.532C290.356 306.35 287.89 303.1 286.018 299.508C285.561 298.629 285.139 297.729 284.762 296.816C283.883 294.649 282.913 292.425 282.045 290.167C280.823 287.042 279.773 283.861 279.294 280.667C279.18 279.869 279.088 279.059 279.043 278.261C278.186 262.386 278.597 242.245 277.718 226.849C277.342 220.223 276.725 214.475 275.663 210.312C272.444 202.101 265.708 190.491 260.217 188.096C259.487 187.879 258.779 187.674 258.048 187.457C241.289 182.599 223.446 179.474 206.105 178.128C204.016 175.756 201.15 173.681 198.707 171.685C197.097 171.97 195.168 172.027 193.57 172.301C193.49 172.267 193.41 172.209 193.341 172.175C191.96 171.423 190.179 170.715 188.844 169.963C175.099 175.619 161.194 181.379 149.241 190.229C144.252 193.935 139.617 198.166 135.701 202.911C130.267 209.525 126.237 217.109 124.593 225.594Z" fill="#CE9CFF"/>
<g style="mix-blend-mode:multiply" opacity="0.2">
<path d="M229.394 253.296C230.307 263.811 231.665 274.406 234.051 284.693C234.474 273.414 233.526 262.089 231.585 250.97C230.763 252.121 230.215 252.144 229.382 253.308L229.394 253.296Z" fill="#800BF5"/>
</g>
<path opacity="0.2" d="M211.469 223.348C207.998 220.759 204.356 218.295 200.886 215.695C209.448 219.276 217.051 223.416 224.951 228.274C220.213 226.952 215.407 226.279 211.469 223.336V223.348Z" fill="#800BF5"/>
<path d="M232.453 256.923C223.069 251.437 213.148 246.853 202.897 243.26C204.826 236.087 207.383 229.358 210.911 222.823C215.614 224.283 220.569 226.039 224.953 228.275C228.8 236.862 231.357 247.571 232.453 256.923Z" fill="url(#paint8_linear_70_1811)"/>
<path d="M227.851 207.381C235.979 214.92 242.156 224.967 245.124 235.63C256.608 236.805 268.538 233.806 277.717 226.849C277.34 220.223 276.724 214.475 275.662 210.312C272.443 202.101 265.707 190.491 260.216 188.096C259.485 187.879 258.777 187.674 258.047 187.457C245.637 188.906 234.039 196.49 227.851 207.37V207.381Z" fill="url(#paint9_linear_70_1811)"/>
<path d="M235.787 302.769C236.015 304.845 236.266 306.943 236.54 309.087C240.73 317.424 266.359 343.586 275.469 347.92C285.538 348.525 295.117 345.263 302.503 338.42C302.663 336.812 302.754 335.193 302.754 333.562C295.505 338.831 286.828 342.092 277.901 342.879C261.427 331.977 247.854 318.017 235.798 302.758L235.787 302.769Z" fill="#800BF5"/>
<g style="mix-blend-mode:multiply" opacity="0.2">
<path d="M135.7 202.922C137.732 204.268 139.501 206.492 141.613 208.191C149.742 214.68 159.194 220.257 168.475 224.967C171.957 222.538 176.295 221.272 180.394 220.154C178.156 222.766 175.942 225.743 174.343 228.799C181.57 234.638 189.23 239.451 197.301 243.454C205.258 247.411 213.626 250.605 222.417 253.216C223.684 246.157 222.816 239.052 220.522 232.266C212.884 226.678 204.927 221.409 196.81 216.528C196.24 216.174 195.657 215.832 195.086 215.49C195.634 215.707 196.171 215.912 196.73 216.151C196.034 212.297 196.662 208.259 197.963 204.53C199.322 200.595 201.4 196.946 203.466 193.319C203.101 195.817 203.854 198.246 203.489 200.755C204.448 198.839 206.548 197.596 207.507 195.691C219.665 199.786 232.029 205.397 242.852 212.274C247.464 241.857 249.861 272.444 248.286 302.336C256.14 316.786 264.862 331.737 279.041 340.097C281.712 341.67 284.578 342.993 286.929 345.012C287.443 345.457 287.957 345.947 288.391 346.472C284.281 347.703 279.92 348.194 275.456 347.92C266.346 343.586 240.717 317.424 236.527 309.087C236.253 306.943 236.013 304.845 235.774 302.769C235.374 299.074 235.032 295.505 234.746 292.026C234.689 291.445 234.655 290.874 234.609 290.304C232.885 289.563 231.173 288.81 229.46 288.069C225.91 286.518 222.394 284.932 218.923 283.313C217.611 282.72 216.321 282.104 215.03 281.5C213.569 280.804 212.097 280.097 210.647 279.401C209.619 278.911 208.603 278.409 207.587 277.896C204.893 276.562 202.222 275.216 199.562 273.836C197.998 273.037 196.422 272.216 194.87 271.372C194.835 271.361 194.778 271.338 194.744 271.304C173.167 259.751 152.653 246.385 132.332 229.483C130.14 227.659 127.115 226.906 124.569 225.583C126.213 217.098 130.243 209.514 135.677 202.899L135.7 202.922Z" fill="#800BF5"/>
</g>
<g style="mix-blend-mode:multiply" opacity="0.2">
<path d="M177.997 216.87C182.495 213.517 187.29 210.837 192.564 208.91C193.888 203.481 196.023 198.258 198.889 193.456C190.68 200.367 184.048 208.009 177.997 216.87Z" fill="#800BF5"/>
</g>
<path d="M124.592 225.594C127.127 226.917 130.163 227.67 132.355 229.495C132.572 229.677 132.778 229.86 133.006 230.031C136.453 218.558 140.735 207.142 149.182 198.816C154.046 194.026 160.016 190.559 165.964 187.218C170.405 184.709 174.88 182.245 179.378 179.828C184.184 177.227 188.785 175.049 193.352 172.187C191.97 171.434 190.189 170.727 188.854 169.974C175.109 175.631 161.204 181.39 149.251 190.24C144.262 193.947 139.627 198.178 135.711 202.922C130.277 209.537 126.247 217.121 124.604 225.606L124.592 225.594Z" fill="#800BF5"/>
<g style="mix-blend-mode:multiply" opacity="0.2">
<path d="M170.366 199.018C178.699 195.015 187.022 191.023 195.355 187.02C185.834 187.066 176.359 191.616 170.366 199.018Z" fill="#800BF5"/>
</g>
<path d="M253.333 290.179C254.098 294.113 255.525 298.207 257.42 301.743C266.667 301.23 275.823 297.033 282.045 290.179C280.823 287.054 279.773 283.872 279.294 280.679C271.279 285.343 262.455 288.571 253.333 290.179Z" fill="url(#paint10_linear_70_1811)"/>
<path d="M263.115 313.216C265.239 316.557 267.796 318.599 270.867 321.085C276.027 314.254 284.349 309.909 292.889 309.532C290.354 306.35 287.888 303.1 286.016 299.508C276.815 300.454 268.549 305.677 263.115 313.205V313.216Z" fill="url(#paint11_linear_70_1811)"/>
<path d="M112.584 153.506C108.999 152.388 104.444 152.24 102.161 155.217C97.0919 161.831 106.67 172.951 111.59 176.703C114.25 178.733 117.367 180.329 120.7 180.512C131.546 181.105 131.409 169.986 126.637 163.382C123.212 158.649 118.177 155.228 112.584 153.494V153.506Z" fill="url(#paint12_linear_70_1811)"/>
<path d="M123.907 164.842C124.113 165.492 124.238 166.142 124.273 166.792C124.353 168.355 123.394 170.088 121.841 170.316C121.11 170.419 120.368 170.191 119.672 169.928C115.551 168.4 111.293 165.948 108.45 162.538C107.502 161.398 106.669 159.995 106.875 158.535C107.548 153.894 113.53 155.627 116.27 156.745C119.387 158.011 122.8 161.329 123.907 164.853V164.842Z" fill="#14063D"/>
</g>
<defs>
<linearGradient id="paint0_linear_70_1811" x1="294.113" y1="266.451" x2="285.526" y2="266.451" gradientUnits="userSpaceOnUse">
<stop stop-color="#800BF5"/>
<stop offset="1" stop-color="#25C6F9"/>
</linearGradient>
<linearGradient id="paint1_linear_70_1811" x1="205.742" y1="127.093" x2="186.51" y2="127.093" gradientUnits="userSpaceOnUse">
<stop stop-color="#800BF5"/>
<stop offset="1" stop-color="#25C6F9"/>
</linearGradient>
<linearGradient id="paint2_linear_70_1811" x1="18.4986" y1="146.042" x2="0.669666" y2="146.042" gradientUnits="userSpaceOnUse">
<stop stop-color="#800BF5"/>
<stop offset="1" stop-color="#25C6F9"/>
</linearGradient>
<linearGradient id="paint3_linear_70_1811" x1="106.288" y1="35.0334" x2="118.036" y2="124.225" gradientUnits="userSpaceOnUse">
<stop stop-color="#3D4A4A"/>
<stop offset="0.51" stop-color="#1C2222"/>
<stop offset="1"/>
</linearGradient>
<linearGradient id="paint4_linear_70_1811" x1="112.332" y1="61.6472" x2="157.628" y2="114.564" gradientUnits="userSpaceOnUse">
<stop stop-color="#3D4A4A"/>
<stop offset="0.51" stop-color="#1C2222"/>
<stop offset="1"/>
</linearGradient>
<linearGradient id="paint5_linear_70_1811" x1="104.069" y1="68.7187" x2="149.365" y2="121.635" gradientUnits="userSpaceOnUse">
<stop stop-color="#3D4A4A"/>
<stop offset="0.51" stop-color="#1C2222"/>
<stop offset="1"/>
</linearGradient>
<linearGradient id="paint6_linear_70_1811" x1="251.52" y1="67.7698" x2="238.459" y2="67.7698" gradientUnits="userSpaceOnUse">
<stop stop-color="#800BF5"/>
<stop offset="1" stop-color="#25C6F9"/>
</linearGradient>
<linearGradient id="paint7_linear_70_1811" x1="227.92" y1="22.4443" x2="228.912" y2="64.4246" gradientUnits="userSpaceOnUse">
<stop stop-color="#AED4D4"/>
<stop offset="0.4" stop-color="#637878"/>
<stop offset="0.81" stop-color="#1C2222"/>
<stop offset="1"/>
</linearGradient>
<linearGradient id="paint8_linear_70_1811" x1="224.571" y1="239.873" x2="203.685" y2="239.873" gradientUnits="userSpaceOnUse">
<stop stop-color="#800BF5"/>
<stop offset="1" stop-color="#25C6F9"/>
</linearGradient>
<linearGradient id="paint9_linear_70_1811" x1="264.419" y1="211.668" x2="229.181" y2="211.668" gradientUnits="userSpaceOnUse">
<stop stop-color="#800BF5"/>
<stop offset="1" stop-color="#25C6F9"/>
</linearGradient>
<linearGradient id="paint10_linear_70_1811" x1="274.388" y1="291.211" x2="254.099" y2="291.211" gradientUnits="userSpaceOnUse">
<stop stop-color="#800BF5"/>
<stop offset="1" stop-color="#25C6F9"/>
</linearGradient>
<linearGradient id="paint11_linear_70_1811" x1="284.949" y1="310.296" x2="263.909" y2="310.296" gradientUnits="userSpaceOnUse">
<stop stop-color="#800BF5"/>
<stop offset="1" stop-color="#25C6F9"/>
</linearGradient>
<linearGradient id="paint12_linear_70_1811" x1="121.996" y1="166.651" x2="101.496" y2="166.651" gradientUnits="userSpaceOnUse">
<stop stop-color="#800BF5"/>
<stop offset="1" stop-color="#25C6F9"/>
</linearGradient>
<clipPath id="clip0_70_1811">
<rect width="336" height="348" fill="white" transform="matrix(-1 0 0 1 336 0)"/>
</clipPath>
</defs>
</svg>
